<?xml version="1.0"?><svg xmlns="http://www.w3.org/2000/svg" version="1.1" width="708" height="168" viewBox="0 0 472 123.2"><g><rect x="0" y="0" width="472" height="112" fill="white"/><g transform="translate(10 10) scale(4)"><g><text x="3" y="25.5" text-anchor="middle" font-family="monospace" font-size="5" fill="black">8</text></g><g><rect x="9" y="0" width="1" height="23" fill="url(#black)"/><rect x="11" y="0" width="1" height="23" fill="url(#black)"/></g><g><rect x="13" y="0" width="2" height="20.5" fill="url(#black)"/><rect x="18" y="0" width="1" height="20.5" fill="url(#black)"/><text x="18" y="25.5" text-anchor="middle" font-family="monospace" font-size="5" fill="black">5</text></g><g><rect x="21" y="0" width="1" height="20.5" fill="url(#black)"/><rect x="23" y="0" width="3" height="20.5" fill="url(#black)"/><text x="24" y="25.5" text-anchor="middle" font-family="monospace" font-size="5" fill="black">9</text></g><g><rect x="27" y="0" width="1" height="20.5" fill="url(#black)"/><rect x="31" y="0" width="2" height="20.5" fill="url(#black)"/><text x="30" y="25.5" text-anchor="middle" font-family="monospace" font-size="5" fill="black">4</text></g><g><rect x="35" y="0" width="2" height="20.5" fill="url(#black)"/><rect x="38" y="0" width="2" height="20.5" fill="url(#black)"/><text x="36" y="25.5" text-anchor="middle" font-family="monospace" font-size="5" fill="black">2</text></g><g><rect x="42" y="0" width="2" height="20.5" fill="url(#black)"/><rect x="45" y="0" width="2" height="20.5" fill="url(#black)"/><text x="42" y="25.5" text-anchor="middle" font-family="monospace" font-size="5" fill="black">2</text></g><g><rect x="49" y="0" width="1" height="20.5" fill="url(#black)"/><rect x="52" y="0" width="2" height="20.5" fill="url(#black)"/><text x="48" y="25.5" text-anchor="middle" font-family="monospace" font-size="5" fill="black">2</text></g><g><rect x="55" y="0" width="1" height="23" fill="url(#black)"/><rect x="57" y="0" width="1" height="23" fill="url(#black)"/></g><g><rect x="59" y="0" width="2" height="20.5" fill="url(#black)"/><rect x="62" y="0" width="2" height="20.5" fill="url(#black)"/><text x="65" y="25.5" text-anchor="middle" font-family="monospace" font-size="5" fill="black">2</text></g><g><rect x="66" y="0" width="1" height="20.5" fill="url(#black)"/><rect x="68" y="0" width="1" height="20.5" fill="url(#black)"/><text x="71" y="25.5" text-anchor="middle" font-family="monospace" font-size="5" fill="black">6</text></g><g><rect x="73" y="0" width="3" height="20.5" fill="url(#black)"/><rect x="78" y="0" width="1" height="20.5" fill="url(#black)"/><text x="77" y="25.5" text-anchor="middle" font-family="monospace" font-size="5" fill="black">0</text></g><g><rect x="80" y="0" width="2" height="20.5" fill="url(#black)"/><rect x="83" y="0" width="2" height="20.5" fill="url(#black)"/><text x="83" y="25.5" text-anchor="middle" font-family="monospace" font-size="5" fill="black">2</text></g><g><rect x="87" y="0" width="1" height="20.5" fill="url(#black)"/><rect x="89" y="0" width="3" height="20.5" fill="url(#black)"/><text x="89" y="25.5" text-anchor="middle" font-family="monospace" font-size="5" fill="black">4</text></g><g><rect x="94" y="0" width="3" height="20.5" fill="url(#black)"/><rect x="99" y="0" width="1" height="20.5" fill="url(#black)"/><text x="95" y="25.5" text-anchor="middle" font-family="monospace" font-size="5" fill="black">0</text></g><g><rect x="101" y="0" width="1" height="23" fill="url(#black)"/><rect x="103" y="0" width="1" height="23" fill="url(#black)"/></g><g><text x="110" y="25.5" text-anchor="middle" font-family="monospace" font-size="5" fill="black">&gt;</text></g><defs>
			<linearGradient id="black" x1="0" x2="0" y1="0" y2="1">
				<stop offset="0%" stop-color="#000"/>
				<stop offset="100%" stop-color="#000"/>
			</linearGradient>
			<linearGradient id="navyBlue" x1="0" x2="0" y1="0" y2="1">
				<stop offset="0%" stop-color="#00379c"/>
				<stop offset="100%" stop-color="#00379c"/>
			</linearGradient>
			<linearGradient id="midnightGreen" x1="0" x2="0" y1="0" y2="1">
				<stop offset="0%" stop-color="#008000"/>
				<stop offset="100%" stop-color="#008000"/>
			</linearGradient>
			<linearGradient id="holo" x1="0" x2="0" y1="0" y2="1">
				<stop offset="0%" stop-color="#ae00ff"/>
				<stop offset="100%" stop-color="#009dff"/>
			</linearGradient>
			<linearGradient id="gradient" x1="0" x2="0" y1="0" y2="1">
				<stop offset="0%" stop-color="#d85bc6"/>
				<stop offset="100%" stop-color="#5c4cff"/>
			</linearGradient>
			<linearGradient id="neon" x1="0" x2="0" y1="0" y2="1">
				<stop offset="0%" stop-color="#00c400"/>
				<stop offset="100%" stop-color="#00612a"/>
			</linearGradient>
		</defs></g></g></svg>