<?xml version="1.0"?><svg xmlns="http://www.w3.org/2000/svg" version="1.1" width="540" height="162" viewBox="0 0 360 118.8"><g><rect x="0" y="0" width="360" height="108" fill="white"/><g transform="translate(10 10) scale(4)"><g><text x="3" y="24.5" text-anchor="middle" font-family="monospace" font-size="5" fill="black">&lt;</text></g><g><rect x="9" y="0" width="1" height="22" fill="url(#black)"/><rect x="11" y="0" width="1" height="22" fill="url(#black)"/></g><g><rect x="13" y="0" width="2" height="19.5" fill="url(#black)"/><rect x="16" y="0" width="3" height="19.5" fill="url(#black)"/><text x="17.6" y="24.5" text-anchor="middle" font-family="monospace" font-size="5" fill="black">8</text></g><g><rect x="20" y="0" width="2" height="19.5" fill="url(#black)"/><rect x="25" y="0" width="1" height="19.5" fill="url(#black)"/><text x="23.2" y="24.5" text-anchor="middle" font-family="monospace" font-size="5" fill="black">5</text></g><g><rect x="29" y="0" width="1" height="19.5" fill="url(#black)"/><rect x="31" y="0" width="2" height="19.5" fill="url(#black)"/><text x="28.8" y="24.5" text-anchor="middle" font-family="monospace" font-size="5" fill="black">9</text></g><g><rect x="34" y="0" width="3" height="19.5" fill="url(#black)"/><rect x="38" y="0" width="2" height="19.5" fill="url(#black)"/><text x="34.4" y="24.5" text-anchor="middle" font-family="monospace" font-size="5" fill="black">7</text></g><g><rect x="41" y="0" width="1" height="22" fill="url(#black)"/><rect x="43" y="0" width="1" height="22" fill="url(#black)"/></g><g><rect x="45" y="0" width="3" height="19.5" fill="url(#black)"/><rect x="49" y="0" width="1" height="19.5" fill="url(#black)"/><text x="50.6" y="24.5" text-anchor="middle" font-family="monospace" font-size="5" fill="black">9</text></g><g><rect x="52" y="0" width="2" height="19.5" fill="url(#black)"/><rect x="56" y="0" width="2" height="19.5" fill="url(#black)"/><text x="56.2" y="24.5" text-anchor="middle" font-family="monospace" font-size="5" fill="black">1</text></g><g><rect x="59" y="0" width="2" height="19.5" fill="url(#black)"/><rect x="63" y="0" width="2" height="19.5" fill="url(#black)"/><text x="61.8" y="24.5" text-anchor="middle" font-family="monospace" font-size="5" fill="black">1</text></g><g><rect x="66" y="0" width="1" height="19.5" fill="url(#black)"/><rect x="68" y="0" width="1" height="19.5" fill="url(#black)"/><text x="67.4" y="24.5" text-anchor="middle" font-family="monospace" font-size="5" fill="black">6</text></g><g><rect x="73" y="0" width="1" height="22" fill="url(#black)"/><rect x="75" y="0" width="1" height="22" fill="url(#black)"/></g><g><text x="82" y="24.5" text-anchor="middle" font-family="monospace" font-size="5" fill="black">&gt;</text></g><defs>
			<linearGradient id="black" x1="0" x2="0" y1="0" y2="1">
				<stop offset="0%" stop-color="#000"/>
				<stop offset="100%" stop-color="#000"/>
			</linearGradient>
			<linearGradient id="navyBlue" x1="0" x2="0" y1="0" y2="1">
				<stop offset="0%" stop-color="#00379c"/>
				<stop offset="100%" stop-color="#00379c"/>
			</linearGradient>
			<linearGradient id="midnightGreen" x1="0" x2="0" y1="0" y2="1">
				<stop offset="0%" stop-color="#008000"/>
				<stop offset="100%" stop-color="#008000"/>
			</linearGradient>
			<linearGradient id="holo" x1="0" x2="0" y1="0" y2="1">
				<stop offset="0%" stop-color="#ae00ff"/>
				<stop offset="100%" stop-color="#009dff"/>
			</linearGradient>
			<linearGradient id="gradient" x1="0" x2="0" y1="0" y2="1">
				<stop offset="0%" stop-color="#d85bc6"/>
				<stop offset="100%" stop-color="#5c4cff"/>
			</linearGradient>
			<linearGradient id="neon" x1="0" x2="0" y1="0" y2="1">
				<stop offset="0%" stop-color="#00c400"/>
				<stop offset="100%" stop-color="#00612a"/>
			</linearGradient>
		</defs></g></g></svg>